<svg width="376" height="80" viewBox="0 0 376 80" fill="none" xmlns="http://www.w3.org/2000/svg">
<g clip-path="url(#clip0_4_6)">
<path d="M38 76C58.9891 76 76 58.9891 76 38C76 17.0109 58.9891 0 38 0C17.0109 0 0 17.0109 0 38C0 58.9891 17.0109 76 38 76ZM30.9641 53.0367L25.175 51.0328C24.2102 50.7062 23.1562 50.6914 22.1914 50.9883L19.9203 51.7156C17.1742 52.5914 14.2055 51.3594 12.8695 48.8211L12.3797 47.9008C10.8063 44.9172 12.0383 41.2211 15.0812 39.7812L20.3211 37.2875C20.6625 37.1242 20.9742 36.8719 21.1969 36.575L21.9836 35.5359C23.0523 34.1109 24.7445 33.2648 26.5258 33.2648C28.307 33.2648 29.9992 34.1109 31.068 35.5359L31.7508 36.4414C32.0477 36.8273 32.4781 37.1094 32.9531 37.1984C34.1109 37.4359 35.2836 36.9758 35.9812 36.0258L37.525 33.918C37.8219 33.5023 38.3117 33.2648 38.8164 33.2648C39.4695 33.2648 40.0633 33.6656 40.3008 34.2742L41.8 38.1187C42.2156 39.1875 42.7945 40.1969 43.507 41.1172L46.1641 44.5016C47.025 45.6 47.5 46.9656 47.5 48.3609C47.5 49.7562 47.025 51.1219 46.1641 52.2203L44.3828 54.5063C43.1508 56.0797 41.2656 57 39.2766 57C38.0297 57 36.8125 56.6437 35.7586 55.9609L31.9883 53.5266C31.6617 53.3188 31.3203 53.1555 30.9641 53.0219V53.0367ZM40.6422 21.1523L43.9375 24.4477C45.4367 25.9469 44.368 28.5 42.2602 28.5H37.8219C36.9906 28.5 36.1742 28.3219 35.4172 27.9953L29.0641 25.175C26.9414 24.2398 27.2977 21.1227 29.5687 20.6773L35.2836 19.5344C37.2281 19.1484 39.2469 19.757 40.6422 21.1523ZM36.8125 64.125C36.8125 62.8187 37.8812 61.75 39.1875 61.75H41.5625C42.8688 61.75 43.9375 62.8187 43.9375 64.125C43.9375 65.4313 42.8688 66.5 41.5625 66.5H39.1875C37.8812 66.5 36.8125 65.4313 36.8125 64.125ZM64.0063 44.368L65.1938 47.9305C65.6094 49.1773 64.9414 50.5133 63.6945 50.9289C62.4477 51.3445 61.1117 50.6766 60.6961 49.4297L59.5086 45.8672C59.093 44.6203 59.7609 43.2844 61.0078 42.8687C62.2547 42.4531 63.5906 43.1211 64.0063 44.368ZM61.0523 56.3023L56.3023 61.0523C55.382 61.9727 53.868 61.9727 52.9477 61.0523C52.0273 60.132 52.0273 58.618 52.9477 57.6977L57.6977 52.9477C58.618 52.0273 60.132 52.0273 61.0523 52.9477C61.9727 53.868 61.9727 55.382 61.0523 56.3023Z" fill="#2563EB"/>
</g>
<path d="M115.062 64.4688C114.229 64.4688 113.323 64.3958 112.344 64.25C111.385 64.125 110.417 63.8438 109.438 63.4062C108.479 62.9688 107.552 62.3542 106.656 61.5625C105.781 60.75 105 59.6875 104.312 58.375C103.646 57.0625 103.104 55.4479 102.688 53.5312C102.292 51.5938 102.094 49.2917 102.094 46.625V27.7188C102.094 25.0312 102.302 22.7396 102.719 20.8438C103.135 18.9271 103.688 17.3229 104.375 16.0312C105.062 14.7188 105.854 13.6771 106.75 12.9062C107.646 12.1354 108.573 11.5521 109.531 11.1562C110.49 10.7396 111.438 10.4688 112.375 10.3438C113.333 10.2188 114.219 10.1562 115.031 10.1562C117.156 10.1562 118.927 10.4583 120.344 11.0625C121.781 11.6458 122.927 12.4583 123.781 13.5C124.656 14.5208 125.271 15.7188 125.625 17.0938C126 18.4688 126.188 19.9271 126.188 21.4688C126.188 22.6146 126.125 23.6771 126 24.6562C125.896 25.6146 125.729 26.6771 125.5 27.8438H118.938V25.125C118.938 22.1875 118.615 19.9896 117.969 18.5312C117.323 17.0729 116.375 16.3438 115.125 16.3438C114.375 16.3438 113.719 16.4896 113.156 16.7812C112.594 17.0729 112.125 17.5729 111.75 18.2812C111.375 18.9688 111.083 19.8854 110.875 21.0312C110.688 22.1771 110.594 23.6042 110.594 25.3125V49.6875C110.594 51.3542 110.667 52.7396 110.812 53.8438C110.979 54.9479 111.24 55.8333 111.594 56.5C111.948 57.1667 112.406 57.6458 112.969 57.9375C113.552 58.2083 114.25 58.3438 115.062 58.3438C115.583 58.3438 116.083 58.2292 116.562 58C117.042 57.75 117.458 57.375 117.812 56.875C118.188 56.3542 118.479 55.7083 118.688 54.9375C118.917 54.1458 119.031 53.2188 119.031 52.1562V46.9375H126.438V51.875C126.438 56.1667 125.458 59.3333 123.5 61.375C121.542 63.4167 118.729 64.4479 115.062 64.4688ZM143.156 64.4688C142.24 64.4688 141.302 64.3958 140.344 64.25C139.406 64.1042 138.49 63.8021 137.594 63.3438C136.719 62.8854 135.885 62.2292 135.094 61.375C134.323 60.5208 133.646 59.3958 133.062 58C132.479 56.6042 132.021 54.8854 131.688 52.8438C131.354 50.8021 131.188 48.3646 131.188 45.5312V38.7812C131.188 35.9896 131.354 33.6042 131.688 31.625C132.042 29.625 132.51 27.9479 133.094 26.5938C133.698 25.2396 134.396 24.1667 135.188 23.375C135.979 22.5625 136.812 21.9479 137.688 21.5312C138.583 21.0938 139.5 20.8125 140.438 20.6875C141.375 20.5417 142.292 20.4688 143.188 20.4688C144.042 20.4688 144.927 20.5312 145.844 20.6562C146.76 20.7812 147.656 21.0521 148.531 21.4688C149.406 21.8646 150.229 22.4688 151 23.2812C151.792 24.0729 152.479 25.1458 153.062 26.5C153.667 27.8542 154.135 29.5417 154.469 31.5625C154.823 33.5625 155 35.9688 155 38.7812V45.5312C155 48.3229 154.823 50.7292 154.469 52.75C154.115 54.7708 153.635 56.4792 153.031 57.875C152.427 59.2708 151.729 60.4062 150.938 61.2812C150.146 62.1354 149.312 62.8021 148.438 63.2812C147.562 63.7604 146.667 64.0729 145.75 64.2188C144.854 64.3854 143.99 64.4688 143.156 64.4688ZM143.219 58.375C143.927 58.375 144.521 58.1979 145 57.8438C145.5 57.4688 145.896 56.8646 146.188 56.0312C146.5 55.1979 146.719 54.1042 146.844 52.75C146.99 51.375 147.062 49.6771 147.062 47.6562V37.0625C147.062 35.0417 146.99 33.3438 146.844 31.9688C146.719 30.5938 146.5 29.4896 146.188 28.6562C145.896 27.8021 145.5 27.1875 145 26.8125C144.521 26.4375 143.927 26.25 143.219 26.25C142.469 26.25 141.833 26.4375 141.312 26.8125C140.812 27.1875 140.396 27.8021 140.062 28.6562C139.729 29.4896 139.49 30.5938 139.344 31.9688C139.198 33.3438 139.125 35.0417 139.125 37.0625V47.6562C139.125 49.6771 139.198 51.375 139.344 52.75C139.49 54.1042 139.729 55.1979 140.062 56.0312C140.396 56.8646 140.812 57.4688 141.312 57.8438C141.833 58.1979 142.469 58.375 143.219 58.375ZM187.688 64.4688C186.854 64.4688 185.948 64.3958 184.969 64.25C184.01 64.125 183.042 63.8438 182.062 63.4062C181.104 62.9688 180.177 62.3542 179.281 61.5625C178.406 60.75 177.625 59.6875 176.938 58.375C176.271 57.0625 175.729 55.4479 175.312 53.5312C174.917 51.5938 174.719 49.2917 174.719 46.625V27.7188C174.719 25.0312 174.927 22.7396 175.344 20.8438C175.76 18.9271 176.312 17.3229 177 16.0312C177.688 14.7188 178.479 13.6771 179.375 12.9062C180.271 12.1354 181.198 11.5521 182.156 11.1562C183.115 10.7396 184.062 10.4688 185 10.3438C185.958 10.2188 186.844 10.1562 187.656 10.1562C189.781 10.1562 191.552 10.4583 192.969 11.0625C194.406 11.6458 195.552 12.4583 196.406 13.5C197.281 14.5208 197.896 15.7188 198.25 17.0938C198.625 18.4688 198.812 19.9271 198.812 21.4688C198.812 22.6146 198.75 23.6771 198.625 24.6562C198.521 25.6146 198.354 26.6771 198.125 27.8438H191.562V25.125C191.562 22.1875 191.24 19.9896 190.594 18.5312C189.948 17.0729 189 16.3438 187.75 16.3438C187 16.3438 186.344 16.4896 185.781 16.7812C185.219 17.0729 184.75 17.5729 184.375 18.2812C184 18.9688 183.708 19.8854 183.5 21.0312C183.312 22.1771 183.219 23.6042 183.219 25.3125V49.6875C183.219 51.3542 183.292 52.7396 183.438 53.8438C183.604 54.9479 183.865 55.8333 184.219 56.5C184.573 57.1667 185.031 57.6458 185.594 57.9375C186.177 58.2083 186.875 58.3438 187.688 58.3438C188.208 58.3438 188.708 58.2292 189.188 58C189.667 57.75 190.083 57.375 190.438 56.875C190.812 56.3542 191.104 55.7083 191.312 54.9375C191.542 54.1458 191.656 53.2188 191.656 52.1562V46.9375H199.062V51.875C199.062 56.1667 198.083 59.3333 196.125 61.375C194.167 63.4167 191.354 64.4479 187.688 64.4688ZM205.062 7.15625H212.969V64H205.062V7.15625ZM231.625 64.4688C229.771 64.4688 228.125 64.125 226.688 63.4375C225.271 62.75 224.073 61.6771 223.094 60.2188C222.115 58.7604 221.375 56.8958 220.875 54.625C220.375 52.3333 220.125 49.5833 220.125 46.375V38.25C220.125 35.5208 220.323 33.1875 220.719 31.25C221.135 29.2917 221.667 27.6562 222.312 26.3438C222.979 25.0104 223.74 23.9583 224.594 23.1875C225.469 22.4167 226.365 21.8333 227.281 21.4375C228.198 21.0208 229.104 20.7604 230 20.6562C230.917 20.5312 231.76 20.4688 232.531 20.4688C233.948 20.4688 235.312 20.6875 236.625 21.125C237.938 21.5417 239.094 22.2708 240.094 23.3125C241.094 24.3333 241.885 25.7083 242.469 27.4375C243.073 29.1667 243.375 31.3229 243.375 33.9062C243.375 34.7812 243.344 35.6667 243.281 36.5625C243.24 37.4583 243.177 38.3438 243.094 39.2188C243.01 40.0729 242.896 40.9062 242.75 41.7188C242.625 42.5312 242.49 43.2812 242.344 43.9688H228.062V48.3438C228.062 50.2188 228.135 51.8021 228.281 53.0938C228.427 54.3646 228.667 55.3958 229 56.1875C229.354 56.9583 229.823 57.5208 230.406 57.875C231.01 58.2083 231.76 58.375 232.656 58.375C233.135 58.375 233.604 58.2812 234.062 58.0938C234.521 57.8854 234.917 57.5521 235.25 57.0938C235.604 56.6354 235.885 56.0312 236.094 55.2812C236.302 54.5104 236.406 53.5625 236.406 52.4375V51.0938H243V52.75C243 56.8333 242.021 59.8125 240.062 61.6875C238.125 63.5417 235.312 64.4688 231.625 64.4688ZM236 38.6562C236.021 38.4271 236.042 38.125 236.062 37.75C236.083 37.3542 236.094 36.9479 236.094 36.5312C236.115 36.1146 236.125 35.7083 236.125 35.3125C236.125 34.8958 236.125 34.5417 236.125 34.25C236.125 31.4167 235.792 29.375 235.125 28.125C234.458 26.875 233.469 26.25 232.156 26.25C231.469 26.25 230.865 26.4167 230.344 26.75C229.823 27.0625 229.396 27.6042 229.062 28.375C228.729 29.125 228.479 30.125 228.312 31.375C228.146 32.625 228.062 34.1771 228.062 36.0312V38.6562H236ZM256 64.4688C254.667 64.4688 253.479 64.2083 252.438 63.6875C251.417 63.1458 250.552 62.4167 249.844 61.5C249.135 60.5833 248.594 59.5 248.219 58.25C247.865 56.9792 247.688 55.6042 247.688 54.125C247.688 52.3542 247.906 50.7812 248.344 49.4062C248.781 48.0312 249.417 46.7917 250.25 45.6875C251.104 44.5833 252.156 43.5833 253.406 42.6875C254.656 41.7708 256.104 40.9062 257.75 40.0938C258.542 39.6979 259.427 39.3021 260.406 38.9062C261.406 38.4896 262.292 38.1354 263.062 37.8438V32.1562C263.062 31.3229 263.031 30.5521 262.969 29.8438C262.906 29.1146 262.75 28.4896 262.5 27.9688C262.271 27.4271 261.917 27.0104 261.438 26.7188C260.958 26.4062 260.302 26.25 259.469 26.25C258.906 26.25 258.354 26.3542 257.812 26.5625C257.292 26.7708 256.823 27.125 256.406 27.625C256.01 28.125 255.688 28.7917 255.438 29.625C255.208 30.4583 255.094 31.4896 255.094 32.7188V34.5938H249.062C248.875 33.7812 248.729 33.0417 248.625 32.375C248.542 31.6875 248.5 31.0104 248.5 30.3438C248.5 28.7396 248.771 27.3229 249.312 26.0938C249.875 24.8646 250.646 23.8333 251.625 23C252.625 22.1667 253.812 21.5417 255.188 21.125C256.562 20.6875 258.073 20.4688 259.719 20.4688C261.865 20.4688 263.646 20.7083 265.062 21.1875C266.479 21.6458 267.604 22.3438 268.438 23.2812C269.292 24.2188 269.885 25.3958 270.219 26.8125C270.573 28.2292 270.75 29.8854 270.75 31.7812V64H264.875L264.312 60.3125C263.458 61.5417 262.312 62.5417 260.875 63.3125C259.458 64.0833 257.833 64.4688 256 64.4688ZM259.5 58.375C260.167 58.375 260.812 58.2083 261.438 57.875C262.083 57.5208 262.625 57.0938 263.062 56.5938V43.125C262.646 43.2917 262.177 43.4896 261.656 43.7188C261.135 43.9479 260.573 44.25 259.969 44.625C259.406 44.9792 258.854 45.4062 258.312 45.9062C257.771 46.4062 257.281 47 256.844 47.6875C256.427 48.375 256.083 49.1562 255.812 50.0312C255.562 50.8854 255.438 51.8438 255.438 52.9062C255.438 54.5521 255.76 55.875 256.406 56.875C257.052 57.875 258.083 58.375 259.5 58.375ZM278.938 20.9688H285.031L285.75 25.5625V25.5938C286.375 24.6146 287.042 23.8021 287.75 23.1562C288.479 22.4896 289.229 21.9583 290 21.5625C290.771 21.1667 291.552 20.8854 292.344 20.7188C293.156 20.5521 293.958 20.4688 294.75 20.4688C297.271 20.4688 299.208 21.3542 300.562 23.125C301.938 24.875 302.625 27.5104 302.625 31.0312V64H294.719V31.3125C294.719 29.4167 294.427 28.1042 293.844 27.375C293.26 26.625 292.406 26.25 291.281 26.25C290.49 26.25 289.698 26.5104 288.906 27.0312C288.135 27.5521 287.448 28.2708 286.844 29.1875V64H278.938V20.9688ZM310.875 20.9688H318.781V53.3125C318.781 55.2083 319.073 56.5312 319.656 57.2812C320.24 58.0104 321.094 58.375 322.219 58.375C323.01 58.375 323.781 58.1562 324.531 57.7188C325.281 57.2812 325.958 56.6562 326.562 55.8438V20.9688H334.469V64H328.438L327.656 59.4062H327.625C327 60.3854 326.333 61.2083 325.625 61.875C324.938 62.5208 324.208 63.0417 323.438 63.4375C322.688 63.8125 321.917 64.0833 321.125 64.25C320.333 64.4167 319.542 64.5 318.75 64.5C316.229 64.5 314.281 63.625 312.906 61.875C311.552 60.125 310.875 57.4792 310.875 53.9375V20.9688ZM350.656 66.4375V77.9062H342.75V20.9688H348.938L349.656 25.5C350.01 24.9167 350.427 24.3229 350.906 23.7188C351.406 23.1146 351.979 22.5833 352.625 22.125C353.292 21.6458 354.031 21.2604 354.844 20.9688C355.677 20.6562 356.604 20.5 357.625 20.5C358.062 20.5 358.583 20.5417 359.188 20.625C359.812 20.7083 360.448 20.9167 361.094 21.25C361.76 21.5833 362.417 22.0833 363.062 22.75C363.729 23.3958 364.312 24.2917 364.812 25.4375C365.333 26.5833 365.75 28.0104 366.062 29.7188C366.396 31.4271 366.562 33.5 366.562 35.9375V48.9688C366.562 51.4062 366.396 53.4792 366.062 55.1875C365.75 56.8958 365.333 58.3229 364.812 59.4688C364.292 60.6146 363.698 61.5208 363.031 62.1875C362.365 62.8542 361.688 63.3542 361 63.6875C360.312 64.0208 359.646 64.2292 359 64.3125C358.354 64.4167 357.792 64.4688 357.312 64.4688C355.646 64.4688 354.25 64.1458 353.125 63.5C352.021 62.8542 351.115 62.0729 350.406 61.1562L350.656 66.4375ZM350.656 55.2188C350.823 55.6354 351.021 56.0312 351.25 56.4062C351.5 56.7812 351.781 57.1146 352.094 57.4062C352.427 57.6979 352.792 57.9375 353.188 58.125C353.604 58.2917 354.083 58.375 354.625 58.375C355.208 58.375 355.74 58.2708 356.219 58.0625C356.698 57.8333 357.115 57.4375 357.469 56.875C357.823 56.2917 358.094 55.4896 358.281 54.4688C358.49 53.4479 358.594 52.1354 358.594 50.5312V34.0625C358.594 32.4583 358.49 31.1562 358.281 30.1562C358.094 29.1354 357.823 28.3333 357.469 27.75C357.135 27.1667 356.729 26.7708 356.25 26.5625C355.771 26.3542 355.24 26.25 354.656 26.25C353.656 26.25 352.833 26.5521 352.188 27.1562C351.562 27.7396 351.052 28.4271 350.656 29.2188V55.2188Z" fill="black"/>
<defs>
<clipPath id="clip0_4_6">
<rect width="76" height="76" fill="white"/>
</clipPath>
</defs>
</svg>
